<?xml version="1.0" standalone="no"?>
<!DOCTYPE svg PUBLIC "-//W3C//DTD SVG 20010904//EN"
 "http://www.w3.org/TR/2001/REC-SVG-20010904/DTD/svg10.dtd">
<svg version="1.0" xmlns="http://www.w3.org/2000/svg"
 width="260.000000pt" height="260.000000pt" viewBox="0 0 260.000000 260.000000"
 preserveAspectRatio="xMidYMid meet">
<metadata>
Created by potrace 1.11, written by Peter Selinger 2001-2013
</metadata>
<g transform="translate(0.000000,260.000000) scale(0.100000,-0.100000)"
fill="#000000" stroke="none">
<path d="M1860 2564 c0 -14 -7 -47 -15 -73 l-16 -47 -41 39 c-22 21 -42 36
-45 34 -2 -3 22 -38 53 -79 56 -74 57 -75 76 -56 31 31 83 48 146 48 57 0 60
-1 72 -30 13 -31 19 -33 119 -44 60 -6 67 -16 42 -64 -28 -54 -71 -88 -123
-96 -60 -9 -106 -40 -124 -82 -22 -52 -11 -66 14 -17 23 44 61 64 147 78 53 9
128 83 144 143 7 23 9 46 7 51 -3 5 -45 15 -92 22 -81 12 -88 15 -106 45 -26
44 -65 58 -137 50 l-59 -7 -23 56 c-24 59 -39 70 -39 29z"/>
<path d="M1665 2528 c6 -20 14 -52 43 -163 8 -28 2 -35 -97 -130 -57 -55 -156
-161 -220 -235 -99 -114 -303 -342 -361 -403 -17 -18 -19 -18 -76 15 -37 20
-103 77 -174 149 -118 119 -157 151 -200 164 l-25 7 21 -23 c12 -13 46 -68 75
-122 40 -74 70 -115 121 -162 65 -62 78 -69 196 -101 10 -3 10 -9 -2 -31 -21
-41 -53 -160 -61 -223 -10 -82 -13 -89 -57 -111 -44 -23 -73 -73 -83 -149 l-6
-45 24 58 c32 73 42 86 93 108 47 20 49 23 84 184 25 114 65 194 142 286 54
65 70 71 43 17 -24 -46 -8 -29 82 89 94 123 287 355 363 436 76 82 169 150
194 143 17 -4 16 -2 -6 19 -19 17 -29 39 -33 72 -8 56 -54 160 -74 168 -10 4
-12 0 -6 -17z"/>
<path d="M2001 2036 c-39 -63 -19 -96 59 -96 33 0 53 -24 93 -116 27 -62 32
-89 21 -118 -8 -21 -24 -10 -24 15 0 31 -47 121 -85 162 -45 49 -74 55 -155
28 -78 -25 -100 -26 -100 -7 0 8 -4 17 -9 20 -6 4 -6 -5 -2 -21 7 -26 11 -28
57 -27 27 0 70 4 96 9 45 7 49 6 79 -26 41 -44 89 -128 89 -157 0 -20 -4 -23
-27 -20 -21 2 -34 14 -52 47 -14 25 -26 40 -29 33 -6 -19 41 -95 67 -108 45
-23 131 40 131 96 0 49 -64 189 -100 217 -8 7 -34 13 -57 13 -46 0 -49 4 -34
58 12 41 8 40 -18 -2z"/>
<path d="M1674 1815 c21 -52 47 -87 77 -104 22 -12 30 -11 69 8 54 26 62 21
18 -12 -47 -35 -117 -69 -235 -112 -56 -20 -122 -50 -148 -66 -47 -30 -60 -26
-24 7 12 10 31 33 42 49 20 28 20 29 2 15 -111 -82 -170 -151 -291 -335 -66
-100 -90 -123 -169 -162 -64 -32 -67 -34 -30 -28 89 14 137 38 195 100 253
268 254 268 460 375 125 65 251 165 236 188 -9 15 75 74 97 68 11 -3 17 0 14
7 -8 26 -49 17 -108 -22 -82 -55 -101 -53 -167 12 l-54 52 16 -40z"/>
<path d="M2305 1518 c-44 -16 -81 -30 -82 -32 -1 -1 26 -79 61 -174 35 -95 61
-172 56 -172 -4 0 -85 31 -181 69 -326 130 -338 133 -374 127 -41 -8 -85 -57
-85 -95 0 -22 181 -536 194 -548 4 -4 148 47 159 57 4 4 -20 82 -53 175 -33
92 -59 169 -58 170 2 1 80 -29 173 -67 323 -130 348 -138 388 -127 45 12 77
52 77 95 0 26 -164 496 -189 540 -4 8 -30 3 -86 -18z"/>
<path d="M1300 1145 c-56 -14 -352 -119 -379 -135 -8 -4 -34 -66 -57 -136 -38
-120 -47 -164 -22 -120 32 57 64 75 271 150 224 82 286 92 348 61 65 -34 90
-135 50 -201 -26 -43 -77 -72 -209 -120 -130 -48 -114 -57 -163 83 -18 48 -33
89 -34 90 -3 4 -169 -58 -178 -66 -4 -4 22 -89 59 -188 l66 -181 52 18 c230
81 416 155 457 181 89 57 150 149 164 250 9 61 -16 151 -60 211 -68 94 -228
139 -365 103z"/>
<path d="M455 844 c-366 -136 -425 -177 -425 -294 1 -120 93 -202 208 -185 26
4 139 40 251 81 117 43 212 72 223 68 25 -8 35 -52 16 -71 -9 -8 -123 -54
-254 -101 l-239 -87 -31 -95 c-18 -52 -31 -96 -30 -97 3 -4 590 213 626 232
62 31 90 56 110 95 42 82 13 199 -60 248 -56 38 -130 27 -335 -48 -253 -93
-250 -92 -276 -71 -15 12 -20 23 -15 39 8 23 45 39 308 133 79 29 148 57 154
63 10 9 64 171 64 190 0 9 1 10 -295 -100z"/>
</g>
</svg>
